<?xml version="1.0" encoding="UTF-8"?>
<svg id="Layer_2" data-name="Layer 2" xmlns="http://www.w3.org/2000/svg" viewBox="0 0 333.39 75.69">
  <defs>
    <style>
      .cls-1 {
        fill: #fff;
      }

      .cls-2 {
        fill: #0098ff;
      }
    </style>
  </defs>
  <g id="Layer_1-2" data-name="Layer 1">
    <g>
      <polygon class="cls-2" points="322.61 57.54 322.5 33.01 308.14 57.58 303.4 57.48 288.67 32.89 288.65 57.55 278.19 57.58 278.19 21.84 293.14 21.83 305.9 43.02 318.81 21.87 333.39 21.84 333.39 57.55 322.61 57.54"/>
      <path class="cls-2" d="M263.79,57.3l-28.57.07c-5.41.01-9.72-3.93-9.72-8.22v-18.56c0-4.58,4.36-8.61,10-8.61h27.42c5.8,0,10.08,4,10.08,8.65l-.02,18.15c0,4.11-3.6,8.51-9.18,8.52ZM258.13,50.32c2.4,0,4.49-1.49,4.5-3.34v-14.23c.01-2.21-2.12-3.92-4.76-3.92l-17.53.04c-2.62,0-4.24,1.83-4.24,3.85v13.93c0,1.96,1.64,3.63,4.11,3.64l17.93.03Z"/>
      <polygon class="cls-2" points="50.61 57.5 36.82 57.52 19.37 41.8 11.06 47.37 11.03 57.56 0 57.54 0 21.85 11.02 21.85 11.06 37.44 34.05 21.9 48.62 21.91 27.49 36.38 50.61 57.5"/>
      <rect class="cls-2" x="54.41" y="21.83" width="11.32" height="35.75"/>
      <polygon class="cls-2" points="116.19 57.55 103.53 57.51 81.77 32.58 81.78 57.56 71.05 57.55 71.05 21.86 84.02 21.85 105.62 46.91 105.7 21.85 116.17 21.85 116.19 57.55"/>
      <path class="cls-2" d="M184.51,28.8h4.95c.43-.59.85-1.15,1.3-1.78,1.29-1.83,2.65-3.61,3.46-5.15l-20.51-.04v23.1c4.06-3.5,7.71-7.05,10.78-10.5v-5.62Z"/>
      <path class="cls-2" d="M220.24,30.29c-.55-4.72-4.49-7.95-10.18-8.39h-.38c-1.1,2.22-2.51,4.56-4.19,6.98,2.3.36,3.89,1.84,3.96,3.87l.02,14.41c-.44,2.05-2.5,3.19-4.8,3.19h-19.33c-1.06.9-2.14,1.8-3.25,2.69-1.97,1.58-3.95,3.09-5.94,4.55l34.23-.08c5.66-.72,9.53-3.88,9.91-8.75l-.05-18.46Z"/>
      <path class="cls-2" d="M168.9,48.34l.07-11.63h0s-22.89,0-22.89,0v7.16s0,0,0,0l12.18-.02c.1.64.15,1.27.14,1.87-.03,2.58-1.13,4.56-3.8,4.57l-17.78.05c-2.38,0-4.67-1.26-4.67-3.41l.03-14.47c0-1.93,2.03-3.62,4.34-3.63h17.99c2.35-.02,3.81,1.63,4.02,3.49h10.35c.04-.36.06-.7.05-1.04-.04-5.1-4.67-9.45-11.2-9.42l-26.32.12c-5.21.02-9.75,3.81-9.77,8.16l-.07,19.13h0c-.01,4.23,4.27,8.09,9.45,8.12l25.46.12c4.08-2.5,8.28-5.41,12.39-8.62.01-.18.03-.37.03-.55Z"/>
      <path class="cls-1" d="M210.11,4.08c-6.35-8.55-28.32-3.21-51.08,11.74,14.62-7.73,35.22-13.22,39.63-7.29,5.72,7.7-12.86,29.25-32.23,43.63-19.36,14.38-39.7,19.79-45.42,12.08-1.5-2.02-1.84-4.75-1.18-7.93-2.87,6.36-3.29,11.77-.67,15.3,7,9.43,33.04,1.96,58.15-16.69,25.11-18.65,39.8-41.41,32.79-50.84Z"/>
    </g>
  </g>
</svg>